<svg width="51" height="51" viewBox="0 0 51 51" fill="none" xmlns="http://www.w3.org/2000/svg">
<path d="M36.3686 19.6192L36.3698 15.4526C36.3707 12.6899 35.274 10.04 33.3211 8.08596C31.3681 6.13188 28.7189 5.03362 25.9563 5.0328C23.1936 5.03197 20.5438 6.12865 18.5897 8.08157C16.6356 10.0345 15.5373 12.6837 15.5365 15.4464L15.5353 19.613C13.8777 19.6125 12.2878 20.2705 11.1153 21.4423C9.94285 22.614 9.2839 24.2036 9.2834 25.8612L9.27906 40.4445C9.27856 42.1021 9.93657 43.692 11.1083 44.8645C12.2801 46.0369 13.8696 46.6959 15.5272 46.6964L36.3605 46.7026C38.0181 46.7031 39.608 46.0451 40.7805 44.8733C41.9529 43.7015 42.6119 42.112 42.6124 40.4544L42.6167 25.8711C42.6172 24.2135 41.9592 22.6236 40.7875 21.4511C39.6157 20.2787 38.0262 19.6197 36.3686 19.6192ZM19.7032 15.4476C19.7037 13.79 20.3626 12.2005 21.5351 11.0287C22.7075 9.85698 24.2974 9.19897 25.955 9.19946C27.6126 9.19996 29.2022 9.85891 30.3739 11.0314C31.5457 12.2038 32.2037 13.7937 32.2032 15.4513L32.2019 19.618L19.7019 19.6143L19.7032 15.4476ZM38.4457 40.4532C38.4456 41.0057 38.2259 41.5356 37.8351 41.9261C37.4443 42.3167 36.9143 42.5361 36.3618 42.5359L15.5284 42.5297C14.9759 42.5295 14.4461 42.3099 14.0555 41.9191C13.6649 41.5282 13.4456 40.9983 13.4457 40.4457L13.4501 25.8624C13.4502 25.3099 13.6699 24.78 14.0607 24.3894C14.4515 23.9989 14.9815 23.7795 15.534 23.7797L36.3674 23.7859C36.9199 23.7861 37.4497 24.0057 37.8403 24.3965C38.2309 24.7874 38.4502 25.3173 38.4501 25.8699L38.4457 40.4532Z" fill="white"/>
</svg>
