<svg width="51" height="51" viewBox="0 0 51 51" fill="none" xmlns="http://www.w3.org/2000/svg">
<path fill-rule="evenodd" clip-rule="evenodd" d="M29.2023 5.03378C30.1806 5.03431 31.1274 5.37901 31.877 6.00749L32.1478 6.25549L41.3409 15.4541C42.0324 16.146 42.4584 17.0591 42.5443 18.0336L42.5609 18.4003L42.5586 25.8711L38.392 25.8699L38.3932 21.7032L29.0182 21.7004C28.2414 21.7001 27.4925 21.4105 26.9176 20.8881C26.3427 20.3656 25.983 19.6477 25.9086 18.8745L25.8941 18.5745L25.8969 9.19946L13.3969 9.19574L13.387 42.5291L25.887 42.5328L25.8858 46.6995L13.3858 46.6957C12.3346 46.6958 11.3222 46.2984 10.5516 45.5834C9.78103 44.8684 9.30918 43.8886 9.23065 42.8403L9.22033 42.5278L9.23026 9.1945C9.23025 8.1433 9.62756 7.13094 10.3426 6.36035C11.0576 5.58977 12.0374 5.11792 13.0857 5.0394L13.3982 5.02907L29.2023 5.03378ZM39.8633 31.0057L45.7533 36.8991C46.1437 37.2899 46.363 37.8198 46.3628 38.3722C46.3626 38.9247 46.1431 39.4544 45.7524 39.845L39.859 45.7349C39.6667 45.9338 39.4368 46.0924 39.1826 46.2016C38.9284 46.3107 38.655 46.3681 38.3784 46.3704C38.1017 46.3727 37.8274 46.3199 37.5714 46.2151C37.3154 46.1102 37.0828 45.9555 36.8873 45.7598C36.6917 45.5641 36.5371 45.3315 36.4324 45.0754C36.3278 44.8194 36.2751 44.545 36.2776 44.2684C36.2801 43.9918 36.3377 43.7184 36.4469 43.4643C36.5562 43.2101 36.715 42.9803 36.914 42.7882L39.2501 40.4534L30.0543 40.4507C29.5017 40.4505 28.9719 40.2309 28.5813 39.8401C28.1907 39.4493 27.9714 38.9193 27.9716 38.3668C27.9717 37.8142 28.1914 37.2844 28.5822 36.8938C28.973 36.5032 29.503 36.2839 30.0555 36.284L39.2514 36.2868L36.9166 33.9507C36.5258 33.5599 36.3063 33.0299 36.3062 32.4773C36.3062 31.9246 36.5257 31.3946 36.9165 31.0038C37.3072 30.613 37.8372 30.3934 38.3899 30.3934C38.9425 30.3934 39.4725 30.6129 39.8633 31.0036L39.8633 31.0057ZM30.0633 10.0632L30.0611 17.534L37.5319 17.5363L30.0633 10.0632Z" fill="white"/>
</svg>
