<svg width="31" height="30" viewBox="0 0 31 30" fill="none" xmlns="http://www.w3.org/2000/svg">
<path d="M10.9694 4.37776C10.8058 4.54515 10.7142 4.76989 10.7141 5.00394C10.714 5.23799 10.8055 5.46278 10.969 5.63026L20.1031 15.0061L10.9634 24.3746C10.7998 24.542 10.7082 24.7668 10.7081 25.0008C10.7081 25.2349 10.7996 25.4597 10.963 25.6271C11.0425 25.7088 11.1375 25.7737 11.2425 25.8181C11.3475 25.8624 11.4603 25.8853 11.5742 25.8853C11.6882 25.8853 11.801 25.8625 11.906 25.8183C12.011 25.774 12.106 25.7091 12.1855 25.6275L21.9048 15.661C22.0755 15.486 22.171 15.2512 22.1711 15.0067C22.1712 14.7622 22.0758 14.5274 21.9052 14.3523L12.1919 4.38C12.1124 4.29834 12.0174 4.23342 11.9124 4.18908C11.8074 4.14474 11.6947 4.12187 11.5807 4.12184C11.4668 4.12181 11.354 4.1446 11.249 4.18888C11.144 4.23316 11.0489 4.29802 10.9694 4.37964L10.9694 4.37776Z" fill="#60A5FA"/>
</svg>
