<svg width="51" height="51" viewBox="0 0 51 51" fill="none" xmlns="http://www.w3.org/2000/svg">
<g clip-path="url(#clip0_53_2753)">
<path d="M42.1716 20.4439L42.1755 7.58976C42.162 7.0463 41.9367 6.52961 41.5476 6.14999C41.1585 5.77037 40.6364 5.55788 40.0927 5.55789L11.7073 5.54943C11.1639 5.56286 10.6472 5.78819 10.2676 6.17731C9.88794 6.56644 9.67546 7.08853 9.67547 7.63216L9.66457 44.1947C9.66424 44.7383 9.87641 45.2605 10.2558 45.6499C10.6352 46.0392 11.1517 46.2648 11.6952 46.2786L40.1327 46.2871C40.6852 46.2872 41.2152 46.0679 41.606 45.6773C41.9968 45.2867 42.2165 44.7569 42.2166 44.2044L42.222 26.3814M16.7777 14.0926L35.059 14.0981M35.0566 21.9418L16.7754 21.9364M16.773 29.7905L26.9293 29.7936M16.7707 37.6343L22.8644 37.6361" stroke="white" stroke-linecap="round" stroke-linejoin="round"/>
<path d="M28.0006 35.0755L27.9998 37.638L30.4998 37.6388C30.7659 37.6323 31.0194 37.5243 31.2083 37.3369L47.3693 21.1855L44.4015 18.2158L28.2404 34.3673C28.0756 34.5655 27.9901 34.8179 28.0006 35.0755Z" stroke="white" stroke-linecap="round" stroke-linejoin="round"/>
<path d="M49.6513 18.884C49.7976 18.7376 49.8799 18.539 49.8799 18.332C49.88 18.125 49.7979 17.9264 49.6516 17.7798L47.8501 15.9356C47.7036 15.7892 47.5051 15.707 47.2981 15.7069C47.091 15.7069 46.8924 15.789 46.7459 15.9352L44.4015 18.2262L47.3693 21.1958L49.6513 18.884Z" stroke="white" stroke-linecap="round" stroke-linejoin="round"/>
</g>
<defs>
<clipPath id="clip0_53_2753">
<rect width="50" height="50" fill="white" transform="translate(0.92749 0.858887) rotate(0.0170682)"/>
</clipPath>
</defs>
</svg>
