<svg width="41" height="40" viewBox="0 0 41 40" fill="none" xmlns="http://www.w3.org/2000/svg">
<path d="M30.9198 20.29C30.919 22.8948 29.8576 25.3927 27.9691 27.234C26.0806 29.0753 23.5197 30.1093 20.8497 30.1085C18.1797 30.1078 15.6194 29.0722 13.732 27.2298C11.8446 25.3873 10.7847 22.8888 10.7855 20.284C10.7863 17.6791 11.8477 15.1813 13.7362 13.34C15.6247 11.4986 18.1856 10.4646 20.8556 10.4654C23.5255 10.4662 26.0858 11.5017 27.9732 13.3442C29.8606 15.1867 30.9205 17.6851 30.9198 20.29ZM30.9198 20.29L20.8526 20.287M20.8526 20.287L15.8216 11.7784M20.8526 20.287L15.8165 28.7926" stroke="#3B82F6" stroke-width="1.5" stroke-linecap="round" stroke-linejoin="round"/>
<path d="M20.8492 31.7452C22.3916 31.7457 23.9189 31.4497 25.3441 30.8743C26.7692 30.2989 28.0642 29.4553 29.1552 28.3916C30.2461 27.3279 31.1116 26.065 31.7023 24.6749C32.2929 23.2849 32.5972 21.795 32.5976 20.2902C32.598 18.7855 32.2947 17.2953 31.7049 15.905C31.1151 14.5146 30.2503 13.2511 29.16 12.1868C28.0697 11.1225 26.7752 10.278 25.3504 9.70177C23.9256 9.1255 22.3984 8.82867 20.8561 8.82821C17.7411 8.82728 14.7534 10.0336 12.5501 12.1818C10.3469 14.3301 9.10857 17.2442 9.10767 20.2832C9.10676 23.3222 10.3433 26.2371 12.5453 28.3866C14.7472 30.5362 17.7343 31.7443 20.8492 31.7452Z" stroke="#3B82F6" stroke-width="1.5" stroke-linecap="round" stroke-linejoin="round"/>
<path d="M20.8477 36.6562C30.1145 36.6589 37.6284 29.3326 37.6311 20.2919C37.6338 11.2511 30.1243 3.92036 20.8575 3.9176C11.5907 3.91484 4.0768 11.2411 4.0741 20.2819C4.07141 29.3226 11.581 36.6534 20.8477 36.6562Z" stroke="#3B82F6" stroke-width="1.5" stroke-linecap="round" stroke-linejoin="round"/>
<path d="M20.8512 25.1976C22.1862 25.198 23.4666 24.681 24.4109 23.7603C25.3551 22.8396 25.8858 21.5907 25.8862 20.2883C25.8866 18.9859 25.3566 17.7366 24.4129 16.8154C23.4692 15.8942 22.1891 15.3764 20.8541 15.376C19.5191 15.3756 18.2387 15.8926 17.2944 16.8133C16.3502 17.734 15.8195 18.9829 15.8191 20.2853C15.8187 21.5877 16.3487 22.837 17.2924 23.7582C18.2361 24.6794 19.5162 25.1972 20.8512 25.1976Z" stroke="#3B82F6" stroke-width="1.5" stroke-linecap="round" stroke-linejoin="round"/>
</svg>
